<?xml version="1.0" encoding="UTF-8"?><svg xmlns="http://www.w3.org/2000/svg" xmlns:xlink="http://www.w3.org/1999/xlink" height="1909.6" preserveAspectRatio="xMidYMid meet" version="1.0" viewBox="290.0 310.8 1950.4 1909.6" width="1950.4" zoomAndPan="magnify"><g><g id="change1_1"><path d="M 355.914062 1824.5 C 409.816406 1954.878906 535.589844 2016.636719 615.976562 2056.109375 C 932.832031 2211.6875 1536.226562 2220.339844 1882.363281 1937.328125 C 1963.359375 1871.105469 2240.335938 1497.6875 2146.929688 1027.300781 C 2064.382812 611.464844 1650.566406 369.921875 1302.214844 337.566406 C 1013.625 310.75 636.84375 415.375 503.863281 668.902344 C 420.242188 828.308594 520.910156 879.054688 452.714844 1240.375 C 393.6875 1553.117188 289.976562 1665.015625 355.914062 1824.5" fill="#caddff"/></g><g id="change2_1"><path d="M 643.039062 1773.898438 L 1957.355469 1845.578125 L 1842.675781 560.324219 L 737.054688 629.558594 Z M 1961.007812 1852.417969 C 1960.949219 1852.417969 1960.886719 1852.40625 1960.828125 1852.40625 L 639.273438 1780.339844 C 638.378906 1780.289062 637.542969 1779.878906 636.953125 1779.207031 C 636.367188 1778.527344 636.074219 1777.648438 636.148438 1776.757812 L 730.675781 626.160156 C 730.8125 624.519531 732.132812 623.21875 733.773438 623.125 L 1845.480469 553.503906 C 1847.328125 553.394531 1848.832031 554.730469 1848.988281 556.515625 L 1964.308594 1848.796875 C 1964.394531 1849.757812 1964.058594 1850.707031 1963.382812 1851.398438 C 1962.765625 1852.046875 1961.898438 1852.417969 1961.007812 1852.417969" fill="#5479f7"/></g><g id="change2_2"><path d="M 610.558594 1772.929688 L 1087.050781 2063.152344 L 1772.722656 1930.730469 L 2100.976562 1213.742188 L 1843.21875 559.59375 L 1252.027344 403.679688 L 736.285156 629.042969 L 411.277344 1175.066406 Z M 1086.417969 2069.96875 C 1085.820312 2069.96875 1085.21875 2069.8125 1084.699219 2069.488281 L 606.074219 1777.960938 C 605.402344 1777.550781 604.898438 1776.921875 604.648438 1776.179688 L 404.5 1175.726562 C 404.195312 1174.808594 404.304688 1173.8125 404.796875 1172.984375 L 731.128906 624.734375 C 731.480469 624.140625 732.015625 623.675781 732.652344 623.390625 L 1250.4375 397.136719 C 1251.117188 396.839844 1251.878906 396.773438 1252.609375 396.96875 L 1846.542969 553.605469 C 1847.5625 553.878906 1848.390625 554.617188 1848.777344 555.597656 L 2107.660156 1212.621094 C 2107.996094 1213.460938 2107.972656 1214.402344 2107.597656 1215.222656 L 1778.0625 1935.042969 C 1777.609375 1936.019531 1776.71875 1936.710938 1775.671875 1936.921875 L 1087.050781 2069.910156 C 1086.839844 2069.949219 1086.628906 2069.96875 1086.417969 2069.96875" fill="#5479f7"/></g><g id="change2_3"><path d="M 1082.066406 2041.230469 C 1081.078125 2041.230469 1080.109375 2040.789062 1079.457031 2039.960938 L 405.03125 1176.722656 C 403.902344 1175.277344 404.160156 1173.191406 405.601562 1172.054688 C 407.046875 1170.933594 409.128906 1171.191406 410.261719 1172.636719 L 1082.816406 2033.5 L 2095.089844 1386.960938 C 2096.625 1385.980469 2098.675781 1386.433594 2099.667969 1387.972656 C 2100.644531 1389.523438 2100.195312 1391.570312 2098.660156 1392.550781 L 1083.847656 2040.710938 C 1083.296875 2041.070312 1082.679688 2041.230469 1082.066406 2041.230469" fill="#5479f7"/></g><g id="change2_4"><path d="M 1939.238281 1852.421875 C 1938.019531 1852.421875 1936.835938 1851.742188 1936.269531 1850.570312 L 1251.796875 461.695312 L 628.1875 1759.160156 C 627.398438 1760.8125 625.410156 1761.511719 623.765625 1760.710938 C 622.113281 1759.921875 621.417969 1757.941406 622.210938 1756.292969 L 1248.765625 452.667969 C 1249.316406 451.539062 1250.476562 450.796875 1251.746094 450.796875 L 1251.757812 450.796875 C 1253.027344 450.796875 1254.175781 451.511719 1254.738281 452.644531 L 1942.21875 1847.632812 C 1943.023438 1849.28125 1942.34375 1851.261719 1940.707031 1852.070312 C 1940.230469 1852.3125 1939.742188 1852.421875 1939.238281 1852.421875" fill="#5479f7"/></g><g id="change2_5"><path d="M 2104.597656 1217.148438 C 2104.558594 1217.148438 2104.542969 1217.148438 2104.519531 1217.148438 L 429.34375 1186.695312 C 427.507812 1186.65625 426.050781 1185.15625 426.085938 1183.316406 C 426.117188 1181.480469 427.742188 1179.996094 429.460938 1180.058594 L 2104.648438 1210.519531 C 2106.484375 1210.546875 2107.933594 1212.058594 2107.90625 1213.898438 C 2107.867188 1215.707031 2106.394531 1217.148438 2104.597656 1217.148438" fill="#5479f7"/></g><g id="change2_6"><path d="M 819.855469 735.203125 L 643.757812 735.203125 C 640.722656 735.203125 638.257812 732.746094 638.257812 729.707031 L 638.257812 553.605469 C 638.257812 550.574219 640.722656 548.109375 643.757812 548.109375 L 819.855469 548.109375 C 822.894531 548.109375 825.355469 550.574219 825.355469 553.605469 L 825.355469 729.707031 C 825.355469 732.746094 822.894531 735.203125 819.855469 735.203125" fill="#5479f7"/></g><g id="change1_2"><path d="M 673.171875 581.882812 C 671.34375 581.882812 669.855469 583.371094 669.855469 585.203125 L 669.855469 702.46875 C 669.855469 704.289062 671.34375 705.777344 673.171875 705.777344 L 790.4375 705.777344 C 792.265625 705.777344 793.753906 704.289062 793.753906 702.46875 L 793.753906 585.203125 C 793.753906 583.371094 792.265625 581.882812 790.4375 581.882812 Z M 790.4375 712.414062 L 673.171875 712.414062 C 667.683594 712.414062 663.21875 707.949219 663.21875 702.46875 L 663.21875 585.203125 C 663.21875 579.710938 667.683594 575.246094 673.171875 575.246094 L 790.4375 575.246094 C 795.925781 575.246094 800.386719 579.710938 800.386719 585.203125 L 800.386719 702.46875 C 800.386719 707.949219 795.925781 712.414062 790.4375 712.414062" fill="#caddff"/></g><g id="change2_7"><path d="M 1933.730469 648.1875 L 1757.632812 648.1875 C 1754.605469 648.1875 1752.128906 645.738281 1752.128906 642.699219 L 1752.128906 466.601562 C 1752.128906 463.5625 1754.605469 461.097656 1757.632812 461.097656 L 1933.730469 461.097656 C 1936.769531 461.097656 1939.234375 463.5625 1939.234375 466.601562 L 1939.234375 642.699219 C 1939.234375 645.738281 1936.769531 648.1875 1933.730469 648.1875" fill="#5479f7"/></g><g id="change1_3"><path d="M 1787.050781 494.878906 C 1785.222656 494.878906 1783.730469 496.359375 1783.730469 498.183594 L 1783.730469 615.449219 C 1783.730469 617.285156 1785.222656 618.769531 1787.050781 618.769531 L 1904.3125 618.769531 C 1906.136719 618.769531 1907.632812 617.285156 1907.632812 615.449219 L 1907.632812 498.183594 C 1907.632812 496.359375 1906.136719 494.878906 1904.3125 494.878906 Z M 1904.3125 625.40625 L 1787.050781 625.40625 C 1781.570312 625.40625 1777.101562 620.941406 1777.101562 615.449219 L 1777.101562 498.183594 C 1777.101562 492.707031 1781.570312 488.238281 1787.050781 488.238281 L 1904.3125 488.238281 C 1909.804688 488.238281 1914.257812 492.707031 1914.257812 498.183594 L 1914.257812 615.449219 C 1914.257812 620.941406 1909.804688 625.40625 1904.3125 625.40625" fill="#caddff"/></g><g id="change3_1"><path d="M 717.46875 1857.800781 L 554.695312 1857.800781 C 547.976562 1857.800781 542.53125 1852.359375 542.53125 1845.640625 L 542.53125 1682.871094 C 542.53125 1676.148438 547.976562 1670.699219 554.695312 1670.699219 L 717.46875 1670.699219 C 724.183594 1670.699219 729.628906 1676.148438 729.628906 1682.871094 L 729.628906 1845.640625 C 729.628906 1852.359375 724.183594 1857.800781 717.46875 1857.800781" fill="#99b9ff"/></g><g id="change1_4"><path d="M 577.445312 1704.480469 C 575.617188 1704.480469 574.128906 1705.96875 574.128906 1707.789062 L 574.128906 1825.058594 C 574.128906 1826.890625 575.617188 1828.378906 577.445312 1828.378906 L 694.710938 1828.378906 C 696.539062 1828.378906 698.027344 1826.890625 698.027344 1825.058594 L 698.027344 1707.789062 C 698.027344 1705.96875 696.539062 1704.480469 694.710938 1704.480469 Z M 694.710938 1835.011719 L 577.445312 1835.011719 C 571.960938 1835.011719 567.492188 1830.550781 567.492188 1825.058594 L 567.492188 1707.789062 C 567.492188 1702.308594 571.960938 1697.839844 577.445312 1697.839844 L 694.710938 1697.839844 C 700.195312 1697.839844 704.660156 1702.308594 704.660156 1707.789062 L 704.660156 1825.058594 C 704.660156 1830.550781 700.195312 1835.011719 694.710938 1835.011719" fill="#caddff"/></g><g id="change2_8"><path d="M 1150.539062 2110.171875 L 1013.601562 2110.171875 C 1010.558594 2110.171875 1008.101562 2107.699219 1008.101562 2104.671875 L 1008.101562 1967.730469 C 1008.101562 1964.691406 1010.558594 1962.230469 1013.601562 1962.230469 L 1150.539062 1962.230469 C 1153.578125 1962.230469 1156.039062 1964.691406 1156.039062 1967.730469 L 1156.039062 2104.671875 C 1156.039062 2107.699219 1153.578125 2110.171875 1150.539062 2110.171875" fill="#5479f7"/></g><g id="change1_5"><path d="M 1037.101562 1989.628906 C 1035.269531 1989.628906 1033.78125 1991.121094 1033.78125 1992.949219 L 1033.78125 2082.890625 C 1033.78125 2084.71875 1035.269531 2086.210938 1037.101562 2086.210938 L 1127.039062 2086.210938 C 1128.871094 2086.210938 1130.359375 2084.71875 1130.359375 2082.890625 L 1130.359375 1992.949219 C 1130.359375 1991.121094 1128.871094 1989.628906 1127.039062 1989.628906 Z M 1127.039062 2092.839844 L 1037.101562 2092.839844 C 1031.609375 2092.839844 1027.148438 2088.378906 1027.148438 2082.890625 L 1027.148438 1992.949219 C 1027.148438 1987.460938 1031.609375 1982.988281 1037.101562 1982.988281 L 1127.039062 1982.988281 C 1132.53125 1982.988281 1136.988281 1987.460938 1136.988281 1992.949219 L 1136.988281 2082.890625 C 1136.988281 2088.378906 1132.53125 2092.839844 1127.039062 2092.839844" fill="#caddff"/></g><g id="change2_9"><path d="M 1320.234375 494.183594 L 1183.296875 494.183594 C 1180.257812 494.183594 1177.796875 491.726562 1177.796875 488.6875 L 1177.796875 351.746094 C 1177.796875 348.707031 1180.257812 346.25 1183.296875 346.25 L 1320.234375 346.25 C 1323.261719 346.25 1325.734375 348.707031 1325.734375 351.746094 L 1325.734375 488.6875 C 1325.734375 491.726562 1323.261719 494.183594 1320.234375 494.183594" fill="#5479f7"/></g><g id="change1_6"><path d="M 1206.785156 373.648438 C 1204.957031 373.648438 1203.476562 375.140625 1203.476562 376.972656 L 1203.476562 466.910156 C 1203.476562 468.742188 1204.957031 470.222656 1206.785156 470.222656 L 1296.734375 470.222656 C 1298.566406 470.222656 1300.046875 468.742188 1300.046875 466.910156 L 1300.046875 376.972656 C 1300.046875 375.140625 1298.566406 373.648438 1296.734375 373.648438 Z M 1296.734375 476.855469 L 1206.785156 476.855469 C 1201.296875 476.855469 1196.835938 472.394531 1196.835938 466.910156 L 1196.835938 376.972656 C 1196.835938 371.476562 1201.296875 367.015625 1206.785156 367.015625 L 1296.734375 367.015625 C 1302.214844 367.015625 1306.683594 371.476562 1306.683594 376.972656 L 1306.683594 466.910156 C 1306.683594 472.394531 1302.214844 476.855469 1296.734375 476.855469" fill="#caddff"/></g><g id="change3_2"><path d="M 2153.347656 1287.796875 L 2029.726562 1287.796875 C 2023.019531 1287.796875 2017.558594 1282.355469 2017.558594 1275.636719 L 2017.558594 1152.035156 C 2017.558594 1145.3125 2023.019531 1139.863281 2029.726562 1139.863281 L 2153.347656 1139.863281 C 2160.058594 1139.863281 2165.503906 1145.3125 2165.503906 1152.035156 L 2165.503906 1275.636719 C 2165.503906 1282.355469 2160.058594 1287.796875 2153.347656 1287.796875" fill="#99b9ff"/></g><g id="change1_7"><path d="M 2046.554688 1167.265625 C 2044.722656 1167.265625 2043.234375 1168.753906 2043.234375 1170.585938 L 2043.234375 1260.53125 C 2043.234375 1262.359375 2044.722656 1263.839844 2046.554688 1263.839844 L 2136.492188 1263.839844 C 2138.324219 1263.839844 2139.824219 1262.359375 2139.824219 1260.53125 L 2139.824219 1170.585938 C 2139.824219 1168.753906 2138.324219 1167.265625 2136.492188 1167.265625 Z M 2136.492188 1270.480469 L 2046.554688 1270.480469 C 2041.074219 1270.480469 2036.613281 1266.011719 2036.613281 1260.53125 L 2036.613281 1170.585938 C 2036.613281 1165.105469 2041.074219 1160.628906 2046.554688 1160.628906 L 2136.492188 1160.628906 C 2141.984375 1160.628906 2146.449219 1165.105469 2146.449219 1170.585938 L 2146.449219 1260.53125 C 2146.449219 1266.011719 2141.984375 1270.480469 2136.492188 1270.480469" fill="#caddff"/></g><g id="change3_3"><path d="M 491.210938 1255.628906 L 367.597656 1255.628906 C 360.882812 1255.628906 355.433594 1250.179688 355.433594 1243.460938 L 355.433594 1119.851562 C 355.433594 1113.128906 360.882812 1107.691406 367.597656 1107.691406 L 491.210938 1107.691406 C 497.929688 1107.691406 503.375 1113.128906 503.375 1119.851562 L 503.375 1243.460938 C 503.375 1250.179688 497.929688 1255.628906 491.210938 1255.628906" fill="#99b9ff"/></g><g id="change1_8"><path d="M 384.433594 1135.089844 C 382.601562 1135.089844 381.113281 1136.578125 381.113281 1138.410156 L 381.113281 1228.351562 C 381.113281 1230.179688 382.601562 1231.671875 384.433594 1231.671875 L 474.371094 1231.671875 C 476.203125 1231.671875 477.691406 1230.179688 477.691406 1228.351562 L 477.691406 1138.410156 C 477.691406 1136.578125 476.203125 1135.089844 474.371094 1135.089844 Z M 474.371094 1238.300781 L 384.433594 1238.300781 C 378.945312 1238.300781 374.476562 1233.839844 374.476562 1228.351562 L 374.476562 1138.410156 C 374.476562 1132.921875 378.945312 1128.449219 384.433594 1128.449219 L 474.371094 1128.449219 C 479.859375 1128.449219 484.328125 1132.921875 484.328125 1138.410156 L 484.328125 1228.351562 C 484.328125 1233.839844 479.859375 1238.300781 474.371094 1238.300781" fill="#caddff"/></g><g id="change3_4"><path d="M 1666.082031 2080.339844 C 1666.082031 2080.339844 1601.09375 1881.972656 1674.804688 1710.640625 C 1677.273438 1704.910156 1699.433594 1715.210938 1702.21875 1709.550781 C 1705.773438 1702.3125 1690.042969 1679.152344 1694.15625 1672.0625 C 1709.40625 1645.699219 1728.5625 1620.46875 1752.410156 1597.25 C 1752.410156 1597.25 1781.078125 1657.269531 1787.078125 1744.859375 C 1787.527344 1751.460938 1761.011719 1765.480469 1761.175781 1772.390625 C 1761.339844 1778.910156 1788.207031 1778.3125 1788.085938 1785.070312 C 1786.453125 1872.589844 1759.179688 1979.480469 1666.082031 2080.339844" fill="#99b9ff"/></g><g id="change3_5"><path d="M 1618.460938 1850.75 C 1615.402344 1844.792969 1590.113281 1860.570312 1586.941406 1854.871094 C 1583.820312 1849.261719 1600.074219 1814.742188 1596.859375 1809.382812 C 1533.921875 1704.210938 1458.042969 1648.601562 1458.042969 1648.601562 C 1443.136719 1695.742188 1436.675781 1742.121094 1436.542969 1786.960938 C 1436.523438 1794.132812 1466.3125 1810.769531 1466.613281 1817.851562 C 1466.933594 1825.621094 1439.632812 1830.960938 1440.3125 1838.632812 C 1450.347656 1951.832031 1496.28125 2046.382812 1544.582031 2122.230469 C 1593.007812 2113.289062 1637.820312 2099.550781 1679.09375 2081.660156 C 1675.347656 1987.941406 1651.664062 1915.230469 1618.460938 1850.75" fill="#99b9ff"/></g><g id="change1_9"><path d="M 1605.269531 2067.980469 C 1589.328125 2033.808594 1574.078125 1998.761719 1559.949219 1963.808594 C 1559.261719 1962.109375 1560.078125 1960.171875 1561.78125 1959.488281 C 1563.480469 1958.800781 1565.410156 1959.621094 1566.101562 1961.320312 C 1580.191406 1996.160156 1595.390625 2031.109375 1611.28125 2065.179688 L 1605.269531 2067.980469" fill="#caddff"/></g><g id="change1_10"><path d="M 1543.46875 1915.769531 C 1542.128906 1915.769531 1540.871094 1914.949219 1540.359375 1913.621094 C 1517.980469 1854.089844 1497.960938 1792.839844 1480.871094 1731.570312 L 1473.058594 1703.570312 C 1472.570312 1701.800781 1473.601562 1699.96875 1475.359375 1699.480469 C 1477.121094 1698.988281 1478.949219 1700.019531 1479.449219 1701.78125 L 1487.261719 1729.789062 C 1504.300781 1790.871094 1524.261719 1851.941406 1546.578125 1911.28125 C 1547.21875 1913 1546.351562 1914.910156 1544.640625 1915.550781 C 1544.25 1915.699219 1543.859375 1915.769531 1543.46875 1915.769531" fill="#caddff"/></g><g id="change3_6"><path d="M 1659.15625 2089.757812 C 1659.15625 2089.757812 1652.882812 1887.699219 1855.691406 1849.828125 C 1855.691406 1849.828125 1844.828125 2023.628906 1659.15625 2089.757812" fill="#99b9ff"/></g><g id="change1_11"><path d="M 1702.140625 2044.5 C 1701.605469 2044.5 1701.066406 2044.371094 1700.5625 2044.101562 C 1698.953125 2043.242188 1698.351562 2041.222656 1699.210938 2039.609375 C 1731.179688 1980.101562 1815.089844 1893.390625 1815.941406 1892.519531 C 1817.214844 1891.210938 1819.316406 1891.183594 1820.625 1892.453125 C 1821.941406 1893.730469 1821.964844 1895.832031 1820.691406 1897.152344 C 1819.851562 1898.011719 1736.589844 1984.050781 1705.058594 2042.75 C 1704.464844 2043.859375 1703.3125 2044.5 1702.140625 2044.5" fill="#caddff"/></g><g id="change4_1"><path d="M 514.074219 2008.730469 L 502.847656 2087.53125 L 474.132812 2087.640625 L 472.777344 2010.140625 L 514.074219 2008.730469" fill="#fff"/></g><g id="change5_1"><path d="M 476.152344 2013.339844 L 477.390625 2084.308594 L 499.972656 2084.21875 L 510.230469 2012.179688 Z M 474.132812 2090.960938 C 472.320312 2090.960938 470.847656 2089.511719 470.8125 2087.699219 L 469.460938 2010.199219 C 469.433594 2008.390625 470.855469 2006.878906 472.667969 2006.820312 L 513.960938 2005.410156 C 514.910156 2005.371094 515.886719 2005.78125 516.542969 2006.511719 C 517.195312 2007.238281 517.496094 2008.230469 517.359375 2009.199219 L 506.132812 2088 C 505.902344 2089.628906 504.507812 2090.839844 502.863281 2090.851562 L 474.144531 2090.960938 C 474.140625 2090.960938 474.136719 2090.960938 474.132812 2090.960938" fill="inherit"/></g><g id="change4_2"><path d="M 503.820312 2162.859375 C 492.554688 2164.070312 475.773438 2164.550781 453.347656 2162.578125 C 445.328125 2161.871094 439.671875 2154.441406 440.964844 2146.5 C 444.445312 2125.109375 454.164062 2087.378906 469.480469 2070.078125 L 477.046875 2080.859375 L 481.539062 2069.71875 C 482.261719 2068.511719 501.292969 2067.71875 501.691406 2069.980469 L 502.847656 2080.859375 L 513.652344 2068.75 L 513.058594 2108.511719 C 512.996094 2112.898438 513.410156 2117.28125 514.296875 2121.578125 L 517.136719 2135.328125 C 518.84375 2143.601562 516.730469 2152.359375 510.953125 2158.519531 C 508.691406 2160.929688 506.183594 2162.609375 503.820312 2162.859375" fill="#fff"/></g><g id="change5_2"><path d="M 469.292969 2075.578125 C 455.792969 2093.808594 447.261719 2128.460938 444.238281 2147.03125 C 443.765625 2149.949219 444.527344 2152.960938 446.339844 2155.289062 C 448.136719 2157.601562 450.730469 2159.019531 453.636719 2159.269531 C 477.511719 2161.371094 493.914062 2160.589844 503.464844 2159.570312 C 504.851562 2159.421875 506.699219 2158.210938 508.535156 2156.25 C 513.429688 2151.03125 515.429688 2143.460938 513.886719 2136 L 511.050781 2122.25 C 510.113281 2117.730469 509.675781 2113.078125 509.742188 2108.460938 L 510.203125 2077.601562 L 505.324219 2083.070312 C 504.449219 2084.050781 503.074219 2084.421875 501.835938 2084.019531 C 500.585938 2083.609375 499.691406 2082.511719 499.550781 2081.210938 L 498.589844 2072.160156 C 495.296875 2071.660156 487.238281 2071.839844 484.046875 2072.371094 L 480.125 2082.101562 C 479.671875 2083.230469 478.636719 2084.011719 477.429688 2084.148438 C 476.214844 2084.300781 475.03125 2083.761719 474.335938 2082.761719 Z M 482.007812 2167.230469 C 473.917969 2167.230469 464.289062 2166.871094 453.058594 2165.878906 C 448.292969 2165.460938 444.046875 2163.148438 441.101562 2159.359375 C 438.164062 2155.578125 436.921875 2150.699219 437.691406 2145.960938 C 438.609375 2140.320312 447.234375 2090.210938 466.996094 2067.878906 C 467.667969 2067.121094 468.675781 2066.710938 469.664062 2066.761719 C 470.679688 2066.820312 471.609375 2067.339844 472.195312 2068.171875 L 476.253906 2073.949219 L 478.460938 2068.480469 C 478.527344 2068.320312 478.605469 2068.160156 478.695312 2068.011719 C 481.183594 2063.851562 500.007812 2065.691406 500.191406 2065.71875 C 501.246094 2065.910156 504.449219 2066.511719 504.960938 2069.398438 C 504.972656 2069.480469 504.984375 2069.550781 504.988281 2069.628906 L 505.355469 2073.070312 L 511.175781 2066.539062 C 512.097656 2065.511719 513.566406 2065.160156 514.855469 2065.660156 C 516.144531 2066.160156 516.988281 2067.410156 516.96875 2068.800781 L 516.378906 2108.558594 C 516.316406 2112.699219 516.710938 2116.859375 517.546875 2120.910156 L 520.382812 2134.660156 C 522.363281 2144.230469 519.742188 2154 513.371094 2160.789062 C 510.378906 2163.980469 507.199219 2165.839844 504.175781 2166.160156 C 498.855469 2166.730469 491.496094 2167.230469 482.007812 2167.230469" fill="inherit"/></g><g id="change5_3"><path d="M 483.28125 2153.171875 C 475.347656 2153.171875 465.511719 2152.558594 454.382812 2150.601562 C 452.578125 2150.289062 451.371094 2148.570312 451.6875 2146.761719 C 452.007812 2144.960938 453.746094 2143.761719 455.53125 2144.070312 C 483.019531 2148.898438 502.683594 2145.070312 502.882812 2145.03125 C 504.675781 2144.660156 506.425781 2145.828125 506.789062 2147.621094 C 507.152344 2149.421875 505.992188 2151.160156 504.199219 2151.53125 C 503.679688 2151.628906 495.886719 2153.171875 483.28125 2153.171875" fill="inherit"/></g><g id="change5_4"><path d="M 492.464844 2122.949219 L 466.414062 2122.949219 C 464.582031 2122.949219 463.097656 2121.46875 463.097656 2119.640625 C 463.097656 2117.808594 464.582031 2116.320312 466.414062 2116.320312 L 492.464844 2116.320312 C 494.296875 2116.320312 495.78125 2117.808594 495.78125 2119.640625 C 495.78125 2121.46875 494.296875 2122.949219 492.464844 2122.949219" fill="inherit"/></g><g id="change4_3"><path d="M 720.191406 2015.769531 L 730.300781 2107.609375 L 768.929688 2115.699219 L 766.578125 2008.011719 L 720.191406 2015.769531" fill="#fff"/></g><g id="change5_5"><path d="M 733.332031 2104.851562 L 765.519531 2111.589844 L 763.34375 2011.910156 L 723.835938 2018.519531 Z M 768.929688 2119.011719 C 768.703125 2119.011719 768.476562 2118.988281 768.25 2118.941406 L 729.617188 2110.851562 C 728.214844 2110.558594 727.15625 2109.398438 727 2107.96875 L 716.894531 2016.128906 C 716.703125 2014.378906 717.910156 2012.78125 719.644531 2012.488281 L 766.03125 2004.738281 C 766.980469 2004.578125 767.949219 2004.839844 768.695312 2005.449219 C 769.433594 2006.070312 769.871094 2006.96875 769.894531 2007.929688 L 772.246094 2115.621094 C 772.269531 2116.640625 771.828125 2117.601562 771.046875 2118.25 C 770.445312 2118.75 769.695312 2119.011719 768.929688 2119.011719" fill="inherit"/></g><g id="change4_4"><path d="M 713.960938 2151.398438 C 713.109375 2135.308594 713.089844 2105.671875 722.890625 2091.378906 L 753.792969 2102.390625 L 753.792969 2095.789062 C 753.792969 2093.660156 755.3125 2091.910156 757.246094 2091.800781 L 774.480469 2090.808594 C 780.914062 2090.441406 787.324219 2091.769531 793.199219 2094.660156 C 810.523438 2103.179688 863.238281 2125.03125 870.550781 2149.589844 C 872.703125 2156.839844 867.039062 2164.089844 859.480469 2164.300781 C 842.132812 2164.800781 800.417969 2165.351562 725.5625 2162.789062 C 719.328125 2162.570312 714.289062 2157.628906 713.960938 2151.398438" fill="#fff"/></g><g id="change5_6"><path d="M 724.308594 2095.410156 C 718.5 2105.96875 715.945312 2126.03125 717.273438 2151.230469 C 717.511719 2155.769531 721.125 2159.320312 725.679688 2159.46875 C 799.722656 2162 841.234375 2161.511719 859.386719 2160.988281 C 862.050781 2160.910156 864.574219 2159.570312 866.144531 2157.410156 C 867.617188 2155.371094 868.0625 2152.871094 867.371094 2150.539062 C 861.363281 2130.339844 819.515625 2110.710938 799.402344 2101.28125 C 796.429688 2099.878906 793.828125 2098.660156 791.734375 2097.628906 C 786.378906 2095 780.453125 2093.78125 774.675781 2094.121094 L 757.4375 2095.109375 C 757.371094 2095.109375 757.113281 2095.328125 757.113281 2095.789062 L 757.113281 2102.390625 C 757.113281 2103.46875 756.585938 2104.480469 755.707031 2105.101562 C 754.828125 2105.71875 753.695312 2105.878906 752.683594 2105.511719 Z M 824.90625 2168.039062 C 801.894531 2168.039062 769.378906 2167.601562 725.453125 2166.101562 C 717.433594 2165.828125 711.070312 2159.578125 710.648438 2151.578125 C 709.765625 2134.859375 709.828125 2104.558594 720.152344 2089.511719 C 721.007812 2088.269531 722.585938 2087.75 724.003906 2088.261719 L 750.476562 2097.691406 L 750.476562 2095.789062 C 750.476562 2091.898438 753.367188 2088.699219 757.058594 2088.488281 L 774.292969 2087.488281 C 781.230469 2087.089844 788.28125 2088.539062 794.664062 2091.679688 C 796.722656 2092.691406 799.289062 2093.898438 802.222656 2095.269531 C 824.816406 2105.871094 866.871094 2125.601562 873.730469 2148.648438 C 875.015625 2152.96875 874.210938 2157.578125 871.519531 2161.300781 C 868.75 2165.121094 864.285156 2167.488281 859.578125 2167.621094 C 852.132812 2167.828125 840.78125 2168.039062 824.90625 2168.039062" fill="inherit"/></g><g id="change5_7"><path d="M 812.9375 2152.78125 C 790.984375 2152.78125 761.324219 2151.820312 728.925781 2148.058594 C 727.105469 2147.851562 725.800781 2146.199219 726.011719 2144.378906 C 726.222656 2142.558594 727.878906 2141.25 729.6875 2141.46875 C 795.410156 2149.089844 849.742188 2145.121094 850.285156 2145.078125 C 852.085938 2144.941406 853.703125 2146.308594 853.84375 2148.140625 C 853.980469 2149.960938 852.613281 2151.558594 850.785156 2151.699219 C 850.507812 2151.71875 835.964844 2152.78125 812.9375 2152.78125" fill="inherit"/></g><g id="change5_8"><path d="M 803.355469 2126.488281 C 802.6875 2126.488281 802.011719 2126.289062 801.421875 2125.871094 L 771.671875 2104.46875 C 770.183594 2103.398438 769.847656 2101.328125 770.914062 2099.839844 C 771.988281 2098.351562 774.058594 2098.019531 775.546875 2099.078125 L 805.296875 2120.480469 C 806.785156 2121.550781 807.121094 2123.628906 806.054688 2125.109375 C 805.40625 2126.011719 804.386719 2126.488281 803.355469 2126.488281" fill="inherit"/></g><g id="change2_10"><path d="M 732.246094 1419.859375 C 732.246094 1419.859375 787.621094 1799.738281 775.820312 2053.28125 L 758.546875 2055.011719 C 749.253906 2055.941406 739.90625 2056.171875 730.585938 2055.699219 L 714.199219 2054.878906 C 714.199219 2054.878906 648.160156 1669.730469 615.1875 1605.761719 C 615.1875 1605.761719 525.511719 1948.28125 522.058594 2041.070312 C 522.058594 2041.070312 482.195312 2045.078125 466.3125 2039.359375 C 457.777344 1949.808594 455.3125 1857.109375 454.886719 1798.921875 C 453.664062 1632.371094 469.582031 1556.71875 478.304688 1520.828125 C 486.316406 1487.871094 494.914062 1461.089844 501.195312 1442.980469 L 522.160156 1383.171875 L 732.246094 1419.859375" fill="#5479f7"/></g><g id="change5_9"><path d="M 717.019531 2051.699219 L 730.75 2052.390625 C 739.875 2052.851562 749.117188 2052.621094 758.214844 2051.710938 L 772.636719 2050.269531 C 783.28125 1810.359375 733.917969 1455.21875 729.300781 1422.710938 L 524.359375 1386.921875 L 504.320312 1444.070312 C 495.550781 1469.390625 487.882812 1495.480469 481.53125 1521.609375 C 470.960938 1565.078125 457.046875 1641.121094 458.203125 1798.898438 C 458.558594 1847.230469 460.488281 1942.101562 469.40625 2036.859375 C 482.894531 2040.589844 510.035156 2038.75 518.875 2038.019531 C 523.996094 1941.871094 611.09375 1608.320312 611.980469 1604.921875 C 612.328125 1603.589844 613.457031 1602.621094 614.824219 1602.46875 C 616.199219 1602.320312 617.507812 1603.019531 618.136719 1604.238281 C 649.902344 1665.871094 710.671875 2014.910156 717.019531 2051.699219 Z M 739.9375 2059.25 C 736.757812 2059.25 733.582031 2059.179688 730.417969 2059.019531 L 714.035156 2058.191406 C 712.484375 2058.109375 711.195312 2056.96875 710.929688 2055.441406 C 710.296875 2051.738281 649.460938 1698.300781 616.035156 1615.699219 C 601.832031 1670.699219 528.460938 1958.269531 525.371094 2041.191406 C 525.308594 2042.851562 524.039062 2044.199219 522.390625 2044.371094 C 520.730469 2044.539062 481.59375 2048.390625 465.1875 2042.480469 C 463.980469 2042.050781 463.128906 2040.949219 463.007812 2039.671875 C 453.886719 1943.941406 451.925781 1847.761719 451.570312 1798.949219 C 450.40625 1640.429688 464.433594 1563.859375 475.082031 1520.039062 C 481.484375 1493.710938 489.214844 1467.410156 498.058594 1441.890625 L 519.027344 1382.070312 C 519.566406 1380.539062 521.132812 1379.621094 522.730469 1379.898438 L 732.8125 1416.589844 C 734.226562 1416.839844 735.320312 1417.960938 735.527344 1419.378906 C 736.082031 1423.179688 790.8125 1802.480469 779.132812 2053.441406 C 779.058594 2055.078125 777.789062 2056.421875 776.152344 2056.589844 L 758.875 2058.308594 C 752.601562 2058.941406 746.265625 2059.25 739.9375 2059.25" fill="inherit"/></g><g id="change5_10"><path d="M 612.078125 1620.199219 C 611.785156 1620.199219 611.492188 1620.160156 611.195312 1620.078125 C 609.429688 1619.601562 608.390625 1617.769531 608.878906 1616.011719 L 618.089844 1582.480469 C 620.914062 1572.199219 629.148438 1564.480469 639.585938 1562.320312 L 648.203125 1560.539062 C 649.996094 1560.171875 651.753906 1561.320312 652.125 1563.121094 C 652.496094 1564.910156 651.34375 1566.671875 649.546875 1567.039062 L 640.929688 1568.820312 C 632.945312 1570.46875 626.648438 1576.371094 624.488281 1584.230469 L 615.273438 1617.761719 C 614.871094 1619.238281 613.535156 1620.199219 612.078125 1620.199219" fill="inherit"/></g><g id="change5_11"><path d="M 490.378906 1557.75 C 488.785156 1557.75 487.378906 1556.601562 487.109375 1554.980469 C 486.808594 1553.171875 488.03125 1551.460938 489.835938 1551.160156 C 537.324219 1543.25 546.828125 1506.21875 546.917969 1505.839844 C 547.351562 1504.058594 549.144531 1502.96875 550.925781 1503.398438 C 552.703125 1503.828125 553.800781 1505.621094 553.367188 1507.410156 C 553.265625 1507.820312 542.6875 1549.078125 490.929688 1557.699219 C 490.742188 1557.738281 490.558594 1557.75 490.378906 1557.75" fill="inherit"/></g><g id="change5_12"><path d="M 734.734375 1532.789062 C 734.296875 1532.789062 733.847656 1532.699219 733.417969 1532.511719 C 702.878906 1519.25 703.625 1490.191406 703.636719 1489.898438 C 703.707031 1488.070312 705.304688 1486.660156 707.074219 1486.710938 C 708.90625 1486.78125 710.332031 1488.320312 710.265625 1490.148438 C 710.234375 1491.21875 709.824219 1515.03125 736.058594 1526.421875 C 737.738281 1527.148438 738.511719 1529.109375 737.78125 1530.789062 C 737.238281 1532.039062 736.015625 1532.789062 734.734375 1532.789062" fill="inherit"/></g><g id="change5_13"><path d="M 727.777344 1103.679688 C 691.152344 1099.550781 612.964844 1092.140625 559.191406 1097.058594 C 542.953125 1098.550781 519.519531 1108.460938 507.175781 1119.109375 C 470.808594 1150.5 402.203125 1219.609375 390.738281 1302.539062 C 389.066406 1314.648438 397.003906 1326.011719 408.933594 1328.648438 L 472.320312 1342.699219 C 472.320312 1342.699219 447.046875 1442.289062 449.082031 1459.488281 C 451.117188 1476.691406 503.484375 1505.960938 568.972656 1481.949219 C 620.042969 1463.230469 692.320312 1448.351562 738.210938 1464.488281 C 738.644531 1464.648438 743.035156 1499.910156 743.488281 1499.980469 C 758.222656 1502.121094 773.074219 1496.378906 772.722656 1475.679688 L 765.734375 1368.128906 L 849.738281 1357.03125 L 857.246094 1354.53125 C 879.949219 1346.96875 891.679688 1321.929688 882.929688 1299.660156 C 863.195312 1249.421875 833.417969 1168.101562 778.265625 1123.179688 C 766.46875 1113.570312 742.898438 1105.378906 727.777344 1103.679688" fill="inherit"/></g><g id="change3_7"><path d="M 689.59375 1434.660156 L 820.871094 1434.660156 C 826.574219 1434.660156 831.539062 1430.78125 832.914062 1425.238281 L 878.332031 1242.109375 C 880.273438 1234.28125 874.355469 1226.710938 866.292969 1226.710938 L 735.015625 1226.710938 C 729.3125 1226.710938 724.347656 1230.601562 722.972656 1236.128906 L 677.554688 1419.269531 C 675.613281 1427.101562 681.53125 1434.660156 689.59375 1434.660156" fill="#99b9ff"/></g><g id="change4_5"><path d="M 856.984375 1320.320312 L 852.570312 1338.800781 L 836.703125 1333.511719 C 827.957031 1330.601562 819.5625 1326.71875 811.683594 1321.941406 L 802.578125 1316.421875 C 795.773438 1312.300781 786.953125 1315.519531 784.308594 1323.019531 C 778.695312 1338.949219 779.804688 1365.640625 836.96875 1382.410156 C 868.519531 1391.671875 877.554688 1351.25 873.46875 1328.789062 C 872.425781 1323.050781 869.605469 1319.378906 866.710938 1317.070312 C 863.25 1314.289062 858.082031 1316.019531 856.984375 1320.320312" fill="#fff"/></g><g id="change5_14"><path d="M 796.128906 1317.929688 C 795.09375 1317.929688 794.054688 1318.109375 793.050781 1318.460938 C 790.417969 1319.410156 788.375 1321.46875 787.4375 1324.121094 C 784.394531 1332.75 784.777344 1340.878906 788.570312 1348.289062 C 795.160156 1361.148438 811.757812 1371.558594 837.898438 1379.230469 C 846.265625 1381.679688 853.304688 1380.398438 858.832031 1375.429688 C 869.453125 1365.871094 872.957031 1344.511719 870.203125 1329.378906 C 869.460938 1325.289062 867.585938 1322.019531 864.636719 1319.648438 C 863.570312 1318.800781 862.449219 1319.039062 862.015625 1319.191406 C 861.585938 1319.328125 860.546875 1319.808594 860.203125 1321.121094 L 855.800781 1339.570312 C 855.582031 1340.46875 854.996094 1341.25 854.1875 1341.699219 C 853.375 1342.148438 852.410156 1342.238281 851.523438 1341.949219 L 835.652344 1336.660156 C 826.6875 1333.671875 818.039062 1329.679688 809.964844 1324.78125 L 800.859375 1319.261719 C 799.40625 1318.378906 797.773438 1317.929688 796.128906 1317.929688 Z M 845.726562 1387.070312 C 842.632812 1387.070312 839.394531 1386.578125 836.035156 1385.589844 C 808.070312 1377.390625 790.117188 1365.859375 782.664062 1351.308594 C 778.078125 1342.351562 777.5625 1332.179688 781.179688 1321.921875 C 782.78125 1317.371094 786.292969 1313.828125 790.816406 1312.21875 C 795.308594 1310.609375 800.222656 1311.109375 804.296875 1313.578125 L 813.402344 1319.101562 C 821.058594 1323.75 829.25 1327.539062 837.75 1330.371094 L 850.1875 1334.511719 L 853.757812 1319.550781 C 853.761719 1319.53125 853.765625 1319.519531 853.769531 1319.5 C 854.566406 1316.378906 856.863281 1313.910156 859.914062 1312.890625 C 862.964844 1311.878906 866.28125 1312.46875 868.785156 1314.480469 C 873.019531 1317.871094 875.695312 1322.488281 876.730469 1328.199219 C 879.765625 1344.878906 876.078125 1368.828125 863.269531 1380.359375 C 858.324219 1384.808594 852.371094 1387.070312 845.726562 1387.070312" fill="inherit"/></g><g id="change4_6"><path d="M 553.386719 1214.300781 C 546.816406 1221.03125 539.347656 1226.789062 531.179688 1231.441406 C 503.621094 1247.140625 437.785156 1285.128906 421.40625 1299.121094 C 400.539062 1316.949219 390.558594 1323.601562 407.324219 1369.460938 C 434.660156 1444.21875 562.125 1252.308594 562.125 1252.308594 C 562.125 1252.308594 599.5625 1259.078125 607.96875 1226.269531 C 607.96875 1226.269531 627.476562 1229.941406 635.609375 1226.410156 C 641.847656 1223.710938 641.574219 1213.128906 633.253906 1211.960938 L 579.402344 1201.921875 C 571.984375 1200.601562 564.394531 1203.03125 559.132812 1208.421875 L 553.386719 1214.300781" fill="#fff"/></g><g id="change5_15"><path d="M 553.386719 1214.300781 L 553.40625 1214.300781 Z M 575.386719 1204.878906 C 570.210938 1204.878906 565.195312 1206.960938 561.503906 1210.738281 L 555.761719 1216.621094 C 548.980469 1223.558594 541.261719 1229.519531 532.820312 1234.328125 C 505.351562 1249.96875 439.71875 1287.839844 423.5625 1301.648438 L 421.714844 1303.21875 C 402.796875 1319.328125 394.964844 1326 410.441406 1368.320312 C 413.835938 1377.601562 418.789062 1382.511719 425.585938 1383.308594 C 426.285156 1383.390625 427.011719 1383.429688 427.742188 1383.441406 C 463.195312 1383.441406 534.414062 1288.039062 559.363281 1250.46875 C 560.09375 1249.371094 561.40625 1248.808594 562.714844 1249.039062 C 564.117188 1249.289062 597.226562 1254.828125 604.753906 1225.449219 C 605.1875 1223.761719 606.871094 1222.699219 608.578125 1223.011719 C 613.734375 1223.980469 628.394531 1225.921875 634.292969 1223.371094 C 636.175781 1222.550781 636.796875 1220.429688 636.578125 1218.808594 C 636.417969 1217.660156 635.71875 1215.660156 632.792969 1215.25 L 578.792969 1205.179688 C 577.660156 1204.980469 576.515625 1204.878906 575.386719 1204.878906 Z M 427.546875 1390.058594 C 426.613281 1390.058594 425.703125 1390 424.804688 1389.898438 C 415.414062 1388.789062 408.484375 1382.289062 404.210938 1370.601562 C 387.804688 1325.730469 395.886719 1316.5 417.414062 1298.171875 L 419.25 1296.601562 C 435.839844 1282.429688 501.902344 1244.300781 529.539062 1228.558594 C 537.441406 1224.058594 544.664062 1218.480469 551.011719 1211.980469 L 556.757812 1206.101562 C 562.792969 1199.921875 571.476562 1197.128906 579.988281 1198.660156 L 633.863281 1208.699219 C 638.78125 1209.378906 642.484375 1213.011719 643.152344 1217.921875 C 643.816406 1222.828125 641.261719 1227.578125 636.929688 1229.449219 C 629.855469 1232.519531 616.433594 1230.96875 610.328125 1230.03125 C 601.320312 1257.589844 572.042969 1256.699219 563.742188 1255.859375 C 552.65625 1272.308594 471.78125 1390.039062 427.546875 1390.058594" fill="inherit"/></g><g id="change4_7"><path d="M 678.167969 1033.261719 L 682.199219 1089.328125 C 683.085938 1096.621094 688.34375 1102.628906 695.449219 1104.480469 L 715.148438 1109.609375 L 702.367188 1119.339844 C 674.039062 1140.921875 634.800781 1140.949219 606.429688 1119.429688 L 586.210938 1104.089844 L 610.675781 1098.628906 C 617.707031 1097.058594 623.109375 1091.421875 624.386719 1084.328125 L 635.195312 1010.148438 L 678.167969 1033.261719" fill="#fff"/></g><g id="change5_16"><path d="M 593.910156 1105.769531 L 608.433594 1116.789062 C 635.515625 1137.328125 673.316406 1137.300781 700.359375 1116.710938 L 707.714844 1111.101562 L 694.613281 1107.691406 C 686.132812 1105.480469 679.964844 1098.429688 678.90625 1089.730469 L 674.992188 1035.320312 L 637.796875 1015.308594 L 627.671875 1084.808594 C 626.132812 1093.351562 619.753906 1100 611.398438 1101.859375 Z M 654.34375 1138.800781 C 636.734375 1138.800781 619.128906 1133.230469 604.425781 1122.070312 L 584.203125 1106.730469 C 583.175781 1105.949219 582.691406 1104.648438 582.96875 1103.390625 C 583.242188 1102.121094 584.226562 1101.140625 585.484375 1100.851562 L 609.949219 1095.390625 C 615.695312 1094.109375 620.078125 1089.539062 621.121094 1083.75 L 631.914062 1009.671875 C 632.066406 1008.601562 632.738281 1007.671875 633.703125 1007.179688 C 634.671875 1006.699219 635.8125 1006.710938 636.765625 1007.230469 L 679.742188 1030.339844 C 680.742188 1030.878906 681.394531 1031.890625 681.476562 1033.019531 L 685.507812 1089.089844 C 686.21875 1094.910156 690.457031 1099.75 696.285156 1101.269531 L 715.984375 1106.398438 C 717.214844 1106.71875 718.148438 1107.71875 718.398438 1108.960938 C 718.652344 1110.210938 718.167969 1111.480469 717.160156 1112.25 L 704.378906 1121.980469 C 689.65625 1133.191406 671.996094 1138.800781 654.34375 1138.800781" fill="inherit"/></g><g id="change5_17"><path d="M 741.878906 955.21875 C 728.398438 948.089844 739.253906 970.300781 694.914062 931.929688 C 677.261719 916.648438 676.625 945.179688 672.035156 941.21875 C 655.082031 926.628906 655.675781 927.109375 644.976562 925.25 C 637.894531 924.019531 628.421875 933.789062 625.605469 943.039062 C 621.890625 955.25 630.003906 962.558594 627.234375 990.671875 C 625.285156 1010.421875 619.074219 1020.121094 624.765625 1025.730469 C 630.515625 1031.410156 639.886719 1024.46875 646.636719 1030.191406 C 655.375 1037.601562 645.402344 1054.058594 651.855469 1065.738281 C 655.921875 1073.101562 669.285156 1081.761719 697.394531 1081.078125 C 701.949219 1080.980469 705.808594 1077.621094 706.550781 1073.109375 C 707.503906 1067.328125 708.664062 1060.019531 709.195312 1052.949219 C 711.707031 1019.238281 704.453125 1008.03125 711.597656 1002.269531 C 722.550781 993.441406 741.160156 1009.890625 749.058594 1002.128906 C 757.265625 994.078125 760.332031 964.988281 741.878906 955.21875" fill="inherit"/></g><g id="change4_8"><path d="M 674.816406 974.121094 L 675.378906 983.328125 C 675.640625 987.671875 675.605469 992.019531 675.269531 996.351562 C 674.640625 1004.488281 673.660156 1018.480469 673.710938 1026.359375 C 673.78125 1037.929688 709.539062 1040.179688 709.539062 1040.179688 L 714.078125 1035.128906 L 718.273438 1035.308594 C 719.085938 1035.339844 719.910156 1035.210938 720.636719 1034.828125 C 722.441406 1033.890625 723.335938 1031.960938 723.027344 1030.089844 C 721.335938 1019.871094 718.375 997.308594 721.652344 979.769531 C 721.652344 979.769531 701.765625 963.628906 674.816406 974.121094" fill="#fff"/></g><g id="change5_18"><path d="M 678.277344 976.390625 L 678.6875 983.128906 C 678.960938 987.601562 678.921875 992.128906 678.574219 996.609375 C 677.976562 1004.359375 676.980469 1018.53125 677.027344 1026.339844 C 677.058594 1031.230469 692.855469 1035.570312 708.15625 1036.761719 L 711.609375 1032.921875 C 712.269531 1032.179688 713.214844 1031.78125 714.214844 1031.820312 L 718.410156 1032 C 718.691406 1032.011719 718.957031 1031.96875 719.101562 1031.890625 C 719.6875 1031.589844 719.820312 1031.019531 719.757812 1030.628906 C 717.902344 1019.449219 715.300781 998.550781 718.03125 981.25 C 713.292969 978.078125 698.113281 969.699219 678.277344 976.390625 Z M 709.539062 1043.5 C 709.472656 1043.5 709.402344 1043.5 709.328125 1043.488281 C 700.21875 1042.921875 670.476562 1039.980469 670.390625 1026.378906 C 670.34375 1018.328125 671.355469 1003.949219 671.960938 996.101562 C 672.285156 991.929688 672.320312 987.699219 672.066406 983.53125 L 671.507812 974.320312 C 671.417969 972.890625 672.269531 971.558594 673.613281 971.03125 C 702.027344 959.960938 722.867188 976.488281 723.742188 977.199219 C 724.683594 977.960938 725.132812 979.191406 724.910156 980.378906 C 721.679688 997.679688 724.804688 1020.53125 726.300781 1029.550781 C 726.855469 1032.890625 725.191406 1036.199219 722.167969 1037.78125 C 720.988281 1038.390625 719.578125 1038.679688 718.136719 1038.621094 L 715.5 1038.511719 L 712.007812 1042.398438 C 711.375 1043.101562 710.476562 1043.5 709.539062 1043.5" fill="inherit"/></g><g id="change4_9"><path d="M 668.535156 1002.511719 C 668.535156 1002.511719 667.21875 980.359375 657.289062 983.160156 C 647.363281 985.960938 649.425781 1010.289062 668.535156 1002.511719" fill="#fff"/></g><g id="change2_11"><path d="M 1306.503906 1778.359375 C 1269.546875 1796.859375 1226.707031 1787.839844 1206.527344 1757.320312 L 1089.144531 1579.769531 C 1026.980469 1514.089844 987.105469 1431.476562 973.871094 1340.9375 L 927.226562 1021.871094 C 917.636719 956.265625 964.0625 889.152344 1033.960938 867.59375 L 1230.296875 807.011719 C 1272.699219 793.929688 1317.035156 796.105469 1354.347656 813.082031 L 1604.449219 926.90625 C 1652.199219 948.648438 1678.1875 996.980469 1670.316406 1049.410156 L 1628.011719 1331.164062 C 1609.601562 1453.761719 1545.375 1570.75 1447.167969 1660.589844 L 1353.34375 1746.210938 C 1339.351562 1758.992188 1323.535156 1769.839844 1306.503906 1778.359375" fill="#5479f7"/></g><g id="change4_10"><path d="M 1198.300781 1745.382812 L 1054.464844 1593.421875 C 992.3125 1527.742188 952.433594 1445.128906 939.199219 1354.589844 L 896.691406 1063.8125 C 884.761719 982.222656 942.5 898.765625 1029.417969 871.945312 L 1195.726562 820.632812 C 1238.058594 807.570312 1282.332031 809.742188 1319.597656 826.695312 L 1550.554688 931.8125 C 1609.945312 958.839844 1642.269531 1018.957031 1632.476562 1084.164062 L 1593.332031 1344.820312 C 1574.925781 1467.414062 1510.707031 1584.402344 1412.484375 1674.242188 L 1337.664062 1742.691406 C 1296.058594 1780.75 1232.929688 1781.972656 1198.300781 1745.382812" fill="#fff"/></g><g id="change5_19"><path d="M 1250.960938 815.476562 C 1233.023438 815.476562 1214.730469 818.246094 1196.703125 823.800781 L 1030.398438 875.113281 C 945.652344 901.257812 888.363281 983.941406 899.972656 1063.335938 L 942.480469 1354.113281 C 955.617188 1443.984375 995.175781 1525.953125 1056.878906 1591.140625 L 1200.707031 1743.101562 C 1233.804688 1778.074219 1295.5 1776.761719 1335.421875 1740.242188 L 1410.246094 1671.792969 C 1507.902344 1582.472656 1571.753906 1466.171875 1590.054688 1344.324219 L 1629.195312 1083.664062 C 1638.785156 1019.742188 1607.386719 961.324219 1549.183594 934.832031 L 1318.222656 829.71875 C 1297.414062 820.253906 1274.492188 815.476562 1250.960938 815.476562 Z M 1263.382812 1775.582031 C 1237.964844 1775.582031 1213.535156 1766.3125 1195.890625 1747.660156 L 1052.0625 1595.703125 C 989.414062 1529.511719 949.25 1446.304688 935.917969 1355.070312 L 893.40625 1064.292969 C 887.519531 1024.007812 898.117188 981.796875 923.257812 945.457031 C 948.339844 909.199219 985.695312 881.960938 1028.4375 868.777344 L 1194.746094 817.464844 C 1238.007812 804.117188 1282.835938 806.320312 1320.980469 823.6875 L 1551.933594 928.800781 C 1612.902344 956.546875 1645.808594 1017.722656 1635.757812 1084.652344 L 1596.617188 1345.3125 C 1578.097656 1468.652344 1513.5 1586.34375 1414.722656 1676.691406 L 1339.894531 1745.140625 C 1317.753906 1765.390625 1290.027344 1775.582031 1263.382812 1775.582031" fill="inherit"/></g><g id="change2_12"><path d="M 1321.445312 1692.632812 C 1288.746094 1722.542969 1239.121094 1723.503906 1211.910156 1694.742188 L 1081.128906 1556.5625 C 1026.9375 1499.3125 992.179688 1427.304688 980.644531 1348.382812 L 936.96875 1050.871094 C 928.488281 993.085938 969.375 933.945312 1030.945312 914.945312 L 1211.777344 859.15625 C 1241.753906 849.902344 1273.105469 851.441406 1299.496094 863.445312 L 1527.65625 967.292969 C 1569.03125 986.121094 1591.929688 1027.699219 1585.9375 1073.152344 L 1550.828125 1339.859375 C 1534.773438 1446.730469 1478.792969 1548.703125 1393.1875 1627.011719 L 1321.445312 1692.632812" fill="#5479f7"/></g><g id="change4_11"><path d="M 1095.609375 1206.941406 L 1238.191406 1437.191406 C 1243.671875 1446.03125 1258.128906 1444.320312 1263.269531 1434.21875 L 1435.570312 1095.421875 C 1438.210938 1090.539062 1435.28125 1085.148438 1429.789062 1084.800781 L 1366.488281 1080.71875 C 1362.871094 1080.480469 1359.261719 1082.589844 1357.671875 1085.878906 L 1252.75 1302.921875 C 1249.859375 1308.910156 1241.289062 1309.960938 1238.140625 1304.710938 L 1158.140625 1171.5 C 1156.070312 1168.050781 1151.300781 1167.078125 1147.339844 1169.300781 L 1099.308594 1196.128906 C 1095.171875 1198.441406 1093.5 1203.320312 1095.609375 1206.941406" fill="#fff"/></g><g id="change5_20"><path d="M 1848.121094 997.539062 C 1869.3125 974.59375 1900.847656 969.761719 1924.550781 976.238281 C 1954.542969 984.421875 1969.664062 1010.378906 1980.328125 1028.667969 C 1999.183594 1061.023438 1990.074219 1072.726562 2004.894531 1091.519531 C 2031.136719 1124.804688 2094.808594 1102.777344 2125.800781 1128.316406 C 2200.289062 1189.742188 2159.683594 1291.25 2093.660156 1339.160156 C 2049.644531 1371.121094 1989.75 1352.640625 1973.441406 1347.609375 C 1923.996094 1332.351562 1842.058594 1302.449219 1834.121094 1231.050781 C 1828.789062 1183.050781 1877.789062 1144.554688 1851.46875 1104.53125 C 1844.757812 1094.339844 1839.210938 1091.585938 1834.230469 1078.828125 C 1826.144531 1058.136719 1824.324219 1023.296875 1848.121094 997.539062" fill="inherit"/></g><g id="change5_21"><path d="M 1925.523438 1003.199219 C 1914.25 994.058594 1921.382812 967.097656 1928.601562 952.5625 C 1931.304688 947.113281 1943.398438 922.714844 1959.289062 923.667969 C 1975.636719 924.632812 1991.273438 952.058594 1985.445312 973.78125 C 1978.152344 1000.9375 1938.730469 1013.910156 1925.523438 1003.199219" fill="inherit"/></g><g id="change2_13"><path d="M 2001.609375 1168.722656 C 1967.617188 1157.636719 1915.828125 1149.671875 1853.910156 1169.394531 C 1831.34375 1176.582031 1815.140625 1196.457031 1812.359375 1219.972656 L 1761.933594 1510.351562 C 1759.429688 1531.460938 1787.648438 1551.984375 1807.523438 1559.511719 C 1828.296875 1567.382812 1859.6875 1574.832031 1904.121094 1574.832031 C 1951.78125 1574.832031 2009.320312 1574.550781 2028.644531 1566.09375 C 2029.230469 1565.84375 2029.800781 1565.582031 2030.398438 1565.300781 C 2055.25 1553.722656 2069.90625 1527.472656 2067.453125 1500.152344 L 2057.179688 1457.472656 C 2045.867188 1410.402344 2040.609375 1362.074219 2041.5625 1313.671875 L 2043.222656 1229.15625 C 2044.480469 1201.953125 2027.492188 1177.179688 2001.609375 1168.722656" fill="#5479f7"/></g><g id="change2_14"><path d="M 1763.476562 1293.488281 C 1763.476562 1293.488281 1803.730469 1181.976562 1848.875 1171.257812 L 1825.929688 1329.253906 L 1763.476562 1293.488281" fill="#5479f7"/></g><g id="change2_15"><path d="M 2101.566406 1358.546875 C 2118.820312 1344.898438 2126.074219 1322.167969 2119.917969 1301.046875 C 2114.386719 1282.058594 2107.421875 1259.175781 2101.34375 1242.636719 C 2080.578125 1186.035156 2037.507812 1173.382812 2020.734375 1169.363281 C 2018.089844 1168.738281 1988.257812 1164.773438 1988.257812 1164.773438 L 2006.21875 1337.976562 L 2082.941406 1369.410156 L 2101.566406 1358.546875" fill="#5479f7"/></g><g id="change5_22"><path d="M 2047.15625 1496.691406 C 2045.960938 1496.691406 2044.804688 1496.039062 2044.210938 1494.910156 C 2010.074219 1430.101562 1905.957031 1427.507812 1860.886719 1436.410156 C 1832.351562 1442.050781 1802.691406 1461.128906 1802.390625 1461.320312 C 1800.855469 1462.320312 1798.804688 1461.878906 1797.796875 1460.347656 C 1796.816406 1458.808594 1797.246094 1456.75 1798.78125 1455.757812 C 1800.039062 1454.949219 1829.796875 1435.789062 1859.601562 1429.910156 C 1880.792969 1425.71875 1918.867188 1423.527344 1956.386719 1431.117188 C 2001.582031 1440.25 2033.96875 1461.238281 2050.074219 1491.820312 C 2050.929688 1493.441406 2050.316406 1495.449219 2048.691406 1496.300781 C 2048.199219 1496.558594 2047.671875 1496.691406 2047.15625 1496.691406" fill="inherit"/></g><g id="change3_8"><path d="M 1922.929688 1384.566406 L 1725.230469 1384.265625 C 1720.21875 1384.253906 1715.859375 1380.835938 1714.660156 1375.976562 L 1681.121094 1236.480469 C 1679.414062 1229.605469 1684.625 1222.96875 1691.710938 1222.96875 L 1889.414062 1223.277344 C 1894.421875 1223.289062 1898.792969 1226.710938 1899.980469 1231.566406 L 1933.53125 1371.054688 C 1935.21875 1377.9375 1930.003906 1384.578125 1922.929688 1384.566406" fill="#99b9ff"/></g><g id="change5_23"><path d="M 1922.921875 1381.257812 C 1922.933594 1381.257812 1922.933594 1381.257812 1922.933594 1381.257812 C 1925.285156 1381.257812 1927.449219 1380.199219 1928.902344 1378.347656 C 1930.351562 1376.507812 1930.863281 1374.140625 1930.304688 1371.859375 L 1896.753906 1232.351562 C 1895.921875 1228.960938 1892.890625 1226.597656 1889.40625 1226.597656 L 1691.707031 1226.289062 L 1691.691406 1226.289062 C 1689.339844 1226.289062 1687.175781 1227.34375 1685.726562 1229.199219 C 1684.273438 1231.042969 1683.765625 1233.410156 1684.335938 1235.691406 L 1717.882812 1375.199219 C 1718.714844 1378.578125 1721.734375 1380.949219 1725.21875 1380.949219 Z M 1922.933594 1387.890625 C 1922.933594 1387.890625 1922.921875 1387.890625 1922.910156 1387.890625 L 1725.21875 1387.589844 C 1718.667969 1387.578125 1712.996094 1383.128906 1711.429688 1376.769531 L 1677.878906 1237.261719 C 1676.832031 1232.992188 1677.796875 1228.558594 1680.507812 1225.097656 C 1683.21875 1221.640625 1687.292969 1219.652344 1691.691406 1219.652344 C 1691.707031 1219.652344 1691.71875 1219.652344 1691.71875 1219.652344 L 1889.40625 1219.964844 C 1895.957031 1219.964844 1901.628906 1224.421875 1903.199219 1230.78125 L 1936.746094 1370.289062 C 1937.792969 1374.539062 1936.84375 1378.976562 1934.121094 1382.449219 C 1931.410156 1385.90625 1927.332031 1387.890625 1922.933594 1387.890625" fill="inherit"/></g><g id="change4_12"><path d="M 1789.949219 1306.40625 C 1791.925781 1314.828125 1799.878906 1320.164062 1807.714844 1318.332031 C 1815.546875 1316.5 1820.300781 1308.191406 1818.335938 1299.773438 C 1816.347656 1291.351562 1808.398438 1286.003906 1800.570312 1287.835938 C 1792.730469 1289.675781 1787.984375 1297.984375 1789.949219 1306.40625" fill="#fff"/></g><g id="change4_13"><path d="M 1692.699219 1289.578125 L 1695.203125 1299.609375 C 1696.28125 1303.835938 1700.9375 1306.050781 1704.882812 1304.179688 L 1738.324219 1288.320312 C 1742.765625 1286.199219 1748.089844 1288.425781 1749.617188 1293.09375 C 1752.753906 1302.632812 1750.109375 1319.546875 1707.539062 1336.804688 C 1681.527344 1347.34375 1680.589844 1318.78125 1684.839844 1301.363281 C 1686.71875 1293.640625 1692.699219 1289.578125 1692.699219 1289.578125" fill="#fff"/></g><g id="change5_24"><path d="M 1690.894531 1296.109375 C 1689.75 1297.671875 1688.640625 1299.710938 1688.046875 1302.167969 C 1685.167969 1313.945312 1685.375 1328.550781 1691.300781 1333.667969 C 1694.515625 1336.449219 1699.546875 1336.460938 1706.273438 1333.746094 C 1736.558594 1321.46875 1750.828125 1307.40625 1746.449219 1294.148438 C 1746.019531 1292.824219 1745.070312 1291.800781 1743.777344 1291.25 C 1742.484375 1290.6875 1741.007812 1290.710938 1739.738281 1291.3125 L 1706.292969 1307.1875 C 1703.511719 1308.492188 1700.324219 1308.503906 1697.53125 1307.1875 C 1694.75 1305.875 1692.734375 1303.417969 1691.980469 1300.421875 Z M 1697.445312 1342.421875 C 1693.339844 1342.421875 1689.847656 1341.183594 1686.96875 1338.703125 C 1678.035156 1330.984375 1678.488281 1313.355469 1681.601562 1300.59375 C 1683.757812 1291.722656 1690.535156 1287.035156 1690.816406 1286.839844 C 1691.710938 1286.238281 1692.855469 1286.109375 1693.867188 1286.484375 C 1694.871094 1286.875 1695.636719 1287.726562 1695.902344 1288.78125 L 1698.414062 1298.804688 C 1698.683594 1299.851562 1699.394531 1300.722656 1700.375 1301.1875 C 1701.359375 1301.660156 1702.46875 1301.648438 1703.449219 1301.1875 L 1736.890625 1285.320312 C 1739.886719 1283.910156 1743.359375 1283.835938 1746.398438 1285.148438 C 1749.414062 1286.433594 1751.730469 1288.964844 1752.765625 1292.070312 C 1756.734375 1304.140625 1752.335938 1322.234375 1708.761719 1339.886719 C 1704.601562 1341.570312 1700.820312 1342.421875 1697.445312 1342.421875" fill="inherit"/></g><g id="change4_14"><path d="M 1981.320312 1246.816406 C 1981.320312 1246.816406 2070.117188 1296.847656 2088.421875 1312.535156 C 2106.738281 1328.238281 2126.597656 1340.148438 2100.710938 1374.355469 C 2078.703125 1403.449219 2039.941406 1377.445312 1971.617188 1279.445312 C 1968.417969 1274.847656 1963.175781 1272.007812 1957.71875 1270.789062 C 1950.871094 1269.246094 1940.917969 1263.828125 1936.335938 1245.847656 C 1936.335938 1245.847656 1903.941406 1250.445312 1901.085938 1234.667969 L 1949.734375 1226.917969 C 1956.246094 1225.765625 1962.914062 1227.917969 1967.53125 1232.65625 L 1981.320312 1246.816406" fill="#fff"/></g><g id="change5_25"><path d="M 1936.328125 1242.542969 C 1937.828125 1242.542969 1939.160156 1243.550781 1939.539062 1245.039062 C 1943.617188 1261.0625 1952.066406 1266.128906 1958.429688 1267.550781 C 1965.246094 1269.082031 1970.902344 1272.632812 1974.324219 1277.550781 C 2023.152344 1347.582031 2057.726562 1381.832031 2080.050781 1382.261719 C 2087.050781 1382.410156 2092.902344 1379.160156 2098.050781 1372.359375 C 2120.035156 1343.320312 2107.664062 1332.980469 2090.554688 1318.671875 C 2089.128906 1317.480469 2087.691406 1316.28125 2086.253906 1315.0625 C 2068.414062 1299.761719 1980.582031 1250.210938 1979.695312 1249.710938 C 1979.417969 1249.5625 1979.171875 1249.371094 1978.9375 1249.140625 L 1965.144531 1234.96875 C 1961.300781 1231.011719 1955.738281 1229.21875 1950.304688 1230.191406 L 1905.75 1237.28125 C 1912.042969 1245.640625 1935.597656 1242.609375 1935.855469 1242.570312 C 1936.015625 1242.550781 1936.183594 1242.542969 1936.328125 1242.542969 Z M 2080.46875 1388.902344 C 2080.273438 1388.902344 2080.101562 1388.902344 2079.921875 1388.902344 C 2054.984375 1388.410156 2019.703125 1354.238281 1968.890625 1281.339844 C 1966.410156 1277.789062 1962.175781 1275.191406 1956.980469 1274.019531 C 1950.605469 1272.601562 1939.410156 1267.488281 1933.886719 1249.460938 C 1925.289062 1250.230469 1900.667969 1251 1897.820312 1235.261719 C 1897.664062 1234.382812 1897.859375 1233.472656 1898.382812 1232.75 C 1898.890625 1232.019531 1899.675781 1231.53125 1900.5625 1231.390625 L 1949.195312 1223.652344 C 1956.742188 1222.308594 1964.515625 1224.8125 1969.910156 1230.339844 L 1983.363281 1244.171875 C 1990.769531 1248.351562 2072.683594 1294.691406 2090.578125 1310.019531 C 2091.988281 1311.230469 2093.402344 1312.410156 2094.796875 1313.582031 C 2111.675781 1327.691406 2129.136719 1342.28125 2103.339844 1376.371094 C 2097.042969 1384.691406 2089.351562 1388.902344 2080.46875 1388.902344" fill="inherit"/></g><g id="change4_15"><path d="M 1890.226562 1115.265625 C 1885.4375 1117.664062 1879.671875 1116.664062 1875.90625 1112.875 C 1871.636719 1108.585938 1868.203125 1104.039062 1865.398438 1099.429688 L 1859.972656 1099.539062 C 1858.242188 1099.578125 1856.792969 1098.222656 1856.71875 1096.492188 L 1855.78125 1075.296875 C 1851.601562 1068.484375 1849.917969 1062.730469 1849.539062 1058.089844 C 1848.894531 1050.214844 1855.902344 1036.074219 1863.007812 1032.601562 C 1872.625 1027.898438 1889.996094 1025.375 1899.074219 1039 C 1902.960938 1044.863281 1909.289062 1049.054688 1913.117188 1048.386719 C 1916.722656 1047.738281 1918.199219 1044.65625 1919.976562 1041.464844 C 1923.292969 1035.515625 1931.53125 1029.910156 1939.441406 1039.316406 C 1947.460938 1048.859375 1941.90625 1057.613281 1936.917969 1064.925781 C 1934.921875 1067.875 1937.089844 1076.066406 1937.894531 1079.539062 L 1949.632812 1129.523438 C 1952.65625 1142.371094 1961.832031 1152.878906 1974.144531 1157.605469 L 1986.710938 1162.421875 C 1986.710938 1162.421875 1972.851562 1204.496094 1917.296875 1203.300781 C 1874.90625 1202.386719 1878.160156 1167.625 1878.160156 1167.625 L 1883.71875 1165.164062 C 1898.292969 1158.726562 1906.277344 1142.882812 1902.753906 1127.34375 L 1899.027344 1110.851562 L 1890.226562 1115.265625" fill="#fff"/></g><g id="change5_26"><path d="M 1881.425781 1169.796875 C 1881.5 1173.570312 1882.414062 1182.324219 1888.691406 1189.332031 C 1894.785156 1196.125 1904.441406 1199.714844 1917.375 1199.980469 C 1961.726562 1200.945312 1978.136719 1173.542969 1982.375 1164.3125 L 1972.960938 1160.699219 C 1959.601562 1155.582031 1949.671875 1144.214844 1946.402344 1130.28125 L 1934.484375 1079.496094 C 1932.96875 1073.183594 1931.699219 1066.710938 1934.175781 1063.058594 C 1939.648438 1055.023438 1943.054688 1048.773438 1936.898438 1041.457031 C 1934.582031 1038.683594 1932.222656 1037.402344 1929.902344 1037.636719 C 1926.777344 1037.929688 1924.164062 1040.75 1922.882812 1043.070312 L 1922.550781 1043.667969 C 1920.792969 1046.832031 1918.632812 1050.773438 1913.699219 1051.652344 C 1907.765625 1052.691406 1900.304688 1046.855469 1896.296875 1040.835938 C 1888.042969 1028.414062 1871.863281 1031.957031 1864.464844 1035.582031 C 1858.894531 1038.292969 1852.277344 1050.96875 1852.851562 1057.808594 C 1853.253906 1062.691406 1855.183594 1067.992188 1858.613281 1073.574219 C 1858.894531 1074.035156 1859.066406 1074.585938 1859.089844 1075.148438 L 1860.03125 1096.347656 L 1865.332031 1096.113281 C 1866.480469 1096.089844 1867.613281 1096.699219 1868.226562 1097.714844 C 1871.09375 1102.402344 1874.464844 1106.726562 1878.25 1110.535156 C 1881.035156 1113.332031 1885.246094 1114.039062 1888.738281 1112.292969 L 1897.542969 1107.886719 C 1898.449219 1107.433594 1899.523438 1107.410156 1900.4375 1107.847656 C 1901.367188 1108.289062 1902.039062 1109.117188 1902.257812 1110.121094 L 1905.992188 1126.605469 C 1909.851562 1143.652344 1901.046875 1161.136719 1885.0625 1168.195312 Z M 1919.585938 1206.636719 C 1918.804688 1206.636719 1918.023438 1206.625 1917.226562 1206.625 C 1902.34375 1206.296875 1891.046875 1201.949219 1883.683594 1193.679688 C 1873.574219 1182.335938 1874.792969 1167.914062 1874.855469 1167.304688 C 1874.964844 1166.109375 1875.722656 1165.070312 1876.820312 1164.582031 L 1882.390625 1162.128906 C 1895.480469 1156.351562 1902.683594 1142.027344 1899.523438 1128.070312 L 1896.726562 1115.714844 L 1891.71875 1118.214844 C 1885.664062 1121.257812 1878.359375 1120.046875 1873.550781 1115.210938 C 1869.824219 1111.476562 1866.480469 1107.300781 1863.585938 1102.792969 L 1860.042969 1102.855469 C 1859.996094 1102.855469 1859.945312 1102.855469 1859.898438 1102.855469 C 1856.40625 1102.855469 1853.558594 1100.15625 1853.402344 1096.640625 L 1852.496094 1076.296875 C 1848.808594 1070.082031 1846.695312 1064.046875 1846.234375 1058.359375 C 1845.511719 1049.625 1852.960938 1033.824219 1861.546875 1029.625 C 1874.367188 1023.359375 1892.441406 1023.054688 1901.828125 1037.171875 C 1905.347656 1042.457031 1910.585938 1045.460938 1912.539062 1045.121094 C 1914.1875 1044.816406 1915.042969 1043.546875 1916.738281 1040.46875 L 1917.082031 1039.84375 C 1919.242188 1035.9375 1923.601562 1031.566406 1929.257812 1031.027344 C 1932.441406 1030.734375 1937.230469 1031.542969 1941.980469 1037.195312 C 1951.835938 1048.90625 1944.214844 1060.105469 1939.671875 1066.796875 C 1939.21875 1067.566406 1939.074219 1070.140625 1940.929688 1077.957031 L 1941.125 1078.785156 L 1952.859375 1128.753906 C 1955.632812 1140.550781 1964.035156 1150.171875 1975.339844 1154.507812 L 1987.894531 1159.320312 C 1989.554688 1159.953125 1990.410156 1161.773438 1989.859375 1163.457031 C 1989.714844 1163.886719 1974.972656 1206.636719 1919.585938 1206.636719" fill="inherit"/></g><g id="change4_16"><path d="M 1893.113281 1986.382812 L 1922.550781 2074.222656 C 1922.550781 2074.222656 1890.480469 2071.492188 1887.425781 2072.082031 C 1884.347656 2072.679688 1846.839844 1991.972656 1846.839844 1991.972656 L 1893.113281 1986.382812" fill="#fff"/></g><g id="change5_27"><path d="M 1887.015625 2068.789062 C 1886.945312 2068.800781 1886.863281 2068.8125 1886.792969 2068.832031 C 1886.863281 2068.820312 1886.921875 2068.800781 1887.015625 2068.789062 Z M 1889.15625 2068.699219 C 1894.921875 2068.699219 1908.535156 2069.738281 1917.820312 2070.5 L 1890.832031 1990 L 1851.792969 1994.722656 C 1867.152344 2027.609375 1884.261719 2062.589844 1888.660156 2068.710938 C 1888.8125 2068.710938 1888.988281 2068.699219 1889.15625 2068.699219 Z M 1922.558594 2077.539062 C 1922.464844 2077.539062 1922.382812 2077.53125 1922.277344 2077.53125 C 1907.128906 2076.230469 1890.160156 2075.070312 1887.996094 2075.351562 C 1884.851562 2075.972656 1883.648438 2076.230469 1863.003906 2033.699219 C 1853.351562 2013.8125 1843.933594 1993.582031 1843.851562 1993.371094 C 1843.402344 1992.410156 1843.4375 1991.289062 1843.957031 1990.359375 C 1844.464844 1989.429688 1845.398438 1988.8125 1846.460938 1988.679688 L 1892.722656 1983.089844 C 1894.292969 1982.902344 1895.773438 1983.832031 1896.269531 1985.332031 L 1925.703125 2073.171875 C 1926.058594 2074.230469 1925.855469 2075.390625 1925.171875 2076.269531 C 1924.53125 2077.082031 1923.574219 2077.539062 1922.558594 2077.539062" fill="inherit"/></g><g id="change3_9"><path d="M 1915.816406 2054.921875 C 1915.816406 2054.921875 1871.53125 2036.769531 1863.355469 2059.550781 C 1852.929688 2088.519531 1836.660156 2132.730469 1836.660156 2132.730469 C 1833.898438 2140.421875 1839.203125 2148.628906 1847.34375 2149.28125 C 1863.523438 2150.589844 1887.664062 2151.640625 1898.910156 2147.691406 C 1916.652344 2141.472656 1946.105469 2085.289062 1946.105469 2085.289062 L 1937.019531 2037.492188 C 1937.019531 2037.492188 1920.972656 2035.222656 1915.816406 2054.921875" fill="#99b9ff"/></g><g id="change5_28"><path d="M 1884.328125 2051.359375 C 1880.347656 2051.359375 1876.566406 2051.898438 1873.410156 2053.300781 C 1869.976562 2054.828125 1867.714844 2057.238281 1866.484375 2060.667969 C 1856.1875 2089.320312 1839.945312 2133.429688 1839.777344 2133.871094 C 1838.820312 2136.53125 1839.15625 2139.449219 1840.699219 2141.839844 C 1842.253906 2144.238281 1844.777344 2145.75 1847.625 2145.980469 C 1871.84375 2147.929688 1889.664062 2147.417969 1897.808594 2144.558594 C 1911.074219 2139.910156 1934.144531 2100.777344 1942.648438 2084.769531 L 1934.273438 2040.730469 C 1930.257812 2041.007812 1922.328125 2043.207031 1919.039062 2055.757812 C 1918.785156 2056.679688 1918.164062 2057.460938 1917.304688 2057.878906 C 1916.453125 2058.308594 1915.449219 2058.347656 1914.566406 2057.988281 C 1914.351562 2057.898438 1898.15625 2051.359375 1884.328125 2051.359375 Z M 1873.398438 2153.78125 C 1864.546875 2153.78125 1855.21875 2153.238281 1847.097656 2152.589844 C 1842.15625 2152.1875 1837.804688 2149.589844 1835.125 2145.441406 C 1832.457031 2141.289062 1831.871094 2136.25 1833.546875 2131.609375 C 1833.714844 2131.140625 1849.945312 2087.050781 1860.242188 2058.417969 C 1862.09375 2053.269531 1865.613281 2049.507812 1870.71875 2047.238281 C 1884.199219 2041.238281 1905.476562 2047.660156 1913.714844 2050.578125 C 1919.144531 2035.851562 1931.40625 2033.339844 1937.503906 2034.199219 C 1938.902344 2034.398438 1940.027344 2035.46875 1940.292969 2036.867188 L 1949.367188 2084.667969 C 1949.511719 2085.398438 1949.40625 2086.160156 1949.058594 2086.832031 C 1945.972656 2092.699219 1918.464844 2144.347656 1900.007812 2150.820312 C 1893.742188 2153.019531 1883.910156 2153.78125 1873.398438 2153.78125" fill="inherit"/></g><g id="change5_29"><path d="M 1893.476562 2133.460938 L 1847.988281 2133.460938 C 1846.164062 2133.460938 1844.671875 2131.980469 1844.671875 2130.152344 C 1844.671875 2128.320312 1846.164062 2126.832031 1847.988281 2126.832031 L 1893.476562 2126.832031 C 1895.304688 2126.832031 1896.78125 2128.320312 1896.78125 2130.152344 C 1896.78125 2131.980469 1895.304688 2133.460938 1893.476562 2133.460938" fill="inherit"/></g><g id="change4_17"><path d="M 1976.601562 2007.960938 L 1966.597656 2096.320312 L 1926.363281 2085.289062 L 1929.46875 2005.667969 L 1976.601562 2007.960938" fill="#fff"/></g><g id="change5_30"><path d="M 1929.765625 2082.78125 L 1963.726562 2092.101562 L 1972.898438 2011.101562 L 1932.632812 2009.152344 Z M 1966.59375 2099.640625 C 1966.292969 2099.640625 1966 2099.601562 1965.707031 2099.519531 L 1925.476562 2088.492188 C 1923.984375 2088.082031 1922.976562 2086.703125 1923.035156 2085.160156 L 1926.132812 2005.539062 C 1926.167969 2004.660156 1926.558594 2003.832031 1927.203125 2003.230469 C 1927.859375 2002.632812 1928.71875 2002.3125 1929.621094 2002.359375 L 1976.75 2004.652344 C 1977.671875 2004.691406 1978.523438 2005.121094 1979.117188 2005.8125 C 1979.714844 2006.511719 1979.992188 2007.433594 1979.894531 2008.339844 L 1969.886719 2096.699219 C 1969.777344 2097.660156 1969.253906 2098.53125 1968.453125 2099.070312 C 1967.894531 2099.449219 1967.238281 2099.640625 1966.59375 2099.640625" fill="inherit"/></g><g id="change3_10"><path d="M 1970.390625 2161.429688 L 1906.722656 2161.429688 C 1898.101562 2161.429688 1891.488281 2153.78125 1892.753906 2145.25 C 1894.886719 2130.871094 1901.816406 2107.019531 1922.5625 2074.21875 C 1924.828125 2070.640625 1928.796875 2068.460938 1933.035156 2068.460938 L 1952.394531 2068.460938 C 1955.730469 2068.460938 1958.53125 2070.988281 1958.882812 2074.308594 L 1960.34375 2088.277344 L 1966.199219 2082.25 C 1968.515625 2079.890625 1972.507812 2080.789062 1973.542969 2083.929688 C 1977.257812 2095.230469 1984.015625 2119.429688 1984.527344 2147.050781 C 1984.671875 2154.941406 1978.292969 2161.429688 1970.390625 2161.429688" fill="#99b9ff"/></g><g id="change5_31"><path d="M 1933.011719 2071.78125 C 1929.949219 2071.78125 1927.007812 2073.402344 1925.363281 2075.992188 C 1904.851562 2108.410156 1898.082031 2131.8125 1896.019531 2145.742188 C 1895.582031 2148.839844 1896.484375 2151.992188 1898.53125 2154.359375 C 1900.582031 2156.742188 1903.570312 2158.113281 1906.714844 2158.113281 L 1970.390625 2158.113281 C 1973.316406 2158.113281 1976.0625 2156.960938 1978.109375 2154.871094 C 1980.160156 2152.78125 1981.257812 2150.03125 1981.195312 2147.109375 C 1980.707031 2120.171875 1974.21875 2096.613281 1970.390625 2084.972656 C 1970.21875 2084.472656 1969.828125 2084.3125 1969.609375 2084.261719 C 1969.390625 2084.210938 1968.949219 2084.179688 1968.574219 2084.570312 L 1962.71875 2090.589844 C 1961.816406 2091.511719 1960.449219 2091.832031 1959.242188 2091.410156 C 1958.035156 2090.992188 1957.167969 2089.902344 1957.035156 2088.621094 L 1955.570312 2074.652344 C 1955.402344 2073.011719 1954.035156 2071.78125 1952.390625 2071.78125 Z M 1970.390625 2164.742188 L 1906.714844 2164.742188 C 1901.628906 2164.742188 1896.824219 2162.539062 1893.507812 2158.699219 C 1890.191406 2154.859375 1888.726562 2149.78125 1889.472656 2144.769531 C 1891.628906 2130.210938 1898.628906 2105.839844 1919.753906 2072.449219 C 1922.644531 2067.878906 1927.605469 2065.152344 1933.011719 2065.152344 L 1952.390625 2065.152344 C 1957.4375 2065.152344 1961.644531 2068.941406 1962.171875 2073.960938 L 1962.890625 2080.890625 L 1963.828125 2079.941406 C 1965.730469 2077.992188 1968.449219 2077.191406 1971.109375 2077.800781 C 1973.742188 2078.410156 1975.828125 2080.320312 1976.683594 2082.902344 C 1980.632812 2094.902344 1987.328125 2119.179688 1987.828125 2146.988281 C 1987.914062 2151.703125 1986.148438 2156.152344 1982.828125 2159.519531 C 1979.535156 2162.890625 1975.109375 2164.742188 1970.390625 2164.742188" fill="inherit"/></g><g id="change5_32"><path d="M 1971.160156 2149.519531 L 1906.667969 2149.519531 C 1904.839844 2149.519531 1903.363281 2148.039062 1903.363281 2146.207031 C 1903.363281 2144.367188 1904.839844 2142.890625 1906.667969 2142.890625 L 1971.160156 2142.890625 C 1972.988281 2142.890625 1974.46875 2144.367188 1974.46875 2146.207031 C 1974.46875 2148.039062 1972.988281 2149.519531 1971.160156 2149.519531" fill="inherit"/></g><g id="change5_33"><path d="M 1825.472656 1477.296875 C 1827.140625 1473.21875 1830.515625 1470.097656 1834.714844 1468.789062 C 1858 1461.476562 1939.175781 1442.238281 2022.734375 1495.816406 C 2026.671875 1498.347656 2029.203125 1502.585938 2029.53125 1507.269531 C 2032.550781 1549.726562 2043.824219 1771.707031 1973.59375 2034.539062 L 1926.296875 2031.167969 L 1916.65625 1581.777344 C 1916.65625 1581.777344 1846.589844 1746.527344 1903.554688 2008.71875 L 1854.351562 2017.808594 C 1854.351562 2017.808594 1782.351562 1923.128906 1769.464844 1778.457031 C 1758.050781 1650.488281 1812.710938 1508.378906 1825.472656 1477.296875" fill="inherit"/></g><g id="change1_12"><path d="M 1961.539062 1827.132812 C 1959.761719 1827.132812 1958.292969 1825.742188 1958.21875 1823.960938 C 1958.144531 1822.132812 1959.566406 1820.582031 1961.394531 1820.5 C 2000.558594 1818.8125 2005.125 1763.761719 2005.160156 1763.203125 C 2005.308594 1761.382812 2006.925781 1760 2008.726562 1760.140625 C 2010.554688 1760.28125 2011.925781 1761.871094 2011.789062 1763.703125 C 2011.738281 1764.3125 2006.667969 1825.191406 1961.675781 1827.132812 C 1961.640625 1827.132812 1961.589844 1827.132812 1961.539062 1827.132812" fill="#caddff"/></g><g id="change1_13"><path d="M 1912.53125 1626.300781 C 1912.496094 1626.300781 1912.460938 1626.300781 1912.4375 1626.289062 C 1910.601562 1626.238281 1909.167969 1624.707031 1909.214844 1622.878906 L 1910.484375 1580.191406 C 1910.695312 1572.839844 1907.238281 1565.929688 1901.226562 1561.699219 L 1882.804688 1548.75 C 1881.300781 1547.6875 1880.9375 1545.617188 1881.996094 1544.117188 C 1883.054688 1542.617188 1885.125 1542.269531 1886.617188 1543.320312 L 1905.039062 1556.269531 C 1912.882812 1561.789062 1917.402344 1570.800781 1917.109375 1580.378906 L 1915.835938 1623.078125 C 1915.789062 1624.878906 1914.320312 1626.300781 1912.53125 1626.300781" fill="#caddff"/></g></g></svg>