<?xml version="1.0" encoding="UTF-8"?><svg xmlns="http://www.w3.org/2000/svg" height="404.19" viewBox="0 0 278.68 404.19" width="278.68"><g data-name="Layer 2"><g data-name="Layer 2"><path d="M109.67,110.4h0a57.24,57.24,0,0,1,57.24-57.23h0a66.7,66.7,0,0,1,66.7,66.7l45.07,2C278.68,45,216.29,0,139.34,0h0A139.33,139.33,0,0,0,0,139.34V312.21a92,92,0,0,0,92,92h186.7V148.66H147.93A38.26,38.26,0,0,1,109.67,110.4Z" fill="#76c5ba"/><circle cx="55.61" cy="140.45" r="9.78"/><path d="M154,277V218.76H121.62v58A30.55,30.55,0,1,0,154,277Z"/></g></g></svg>